<svg height="512" viewBox="0 0 512 512" width="512" xmlns="http://www.w3.org/2000/svg"><g id="Flat"><rect fill="#0093b9" height="432" rx="24" width="304" x="104" y="56"/><path d="m176 96h-8a32.036 32.036 0 0 1 -32-32v-16a32 32 0 0 1 64 0v8h-16v-8a16 16 0 0 0 -32 0v16a16.019 16.019 0 0 0 16 16h8z" fill="#57c3c1"/><path d="m264 96h-8a32.036 32.036 0 0 1 -32-32v-16a32 32 0 0 1 64 0v8h-16v-8a16 16 0 0 0 -32 0v16a16.019 16.019 0 0 0 16 16h8z" fill="#57c3c1"/><path d="m352 96h-8a32.036 32.036 0 0 1 -32-32v-16a32 32 0 0 1 64 0v8h-16v-8a16 16 0 0 0 -32 0v16a16.019 16.019 0 0 0 16 16h8z" fill="#57c3c1"/><path d="m472.59 410.916-414.982 29.084-17.079-14.842 14.842-17.08 414.982-29.084z" fill="#f8bc1e"/><path d="m431.52 380.353h40v32h-40z" fill="#e3e4e2" transform="matrix(.998 -.07 .07 .998 -26.606 32.537)"/><path d="m399.608 382.87h32v32h-32z" fill="#e9ae48" transform="matrix(.998 -.07 .07 .998 -26.87 30.033)"/><g fill="#5db9d2"><path d="m365.292 271.622-26.029-42.754a5.709 5.709 0 0 0 -9.1-.877l-23.1 25.335a21.709 21.709 0 0 1 -37.37-10.565l-6.039-31.761a5.71 5.71 0 0 0 -8.684-3.743l-36.5 23.323a21.708 21.708 0 0 1 -33.313-16.38l-3.322-37.458a5.71 5.71 0 0 0 -8.255-4.6l-33.98 17.116-7.2-14.291 33.982-17.109a21.709 21.709 0 0 1 31.387 17.473l3.322 37.459a5.711 5.711 0 0 0 8.762 4.308l36.5-23.324a21.71 21.71 0 0 1 33.017 14.234l6.045 31.761a5.71 5.71 0 0 0 9.829 2.778l23.1-25.335a21.709 21.709 0 0 1 34.587 3.336l26.027 42.752z"/><path d="m152 288h16v16h-16z"/><path d="m184 288h192v16h-192z"/><path d="m136 320h240v16h-240z"/><path d="m136 352h88v16h-88z"/><path d="m310.423 190.733a22 22 0 0 1 -5.047-.588 21.55 21.55 0 0 1 -15.676-14.425l-11.619-35.767a5.709 5.709 0 0 0 -9.073-2.633l-29.289 24.28-10.21-12.319 29.291-24.281a21.708 21.708 0 0 1 34.5 10.008l11.618 35.766a5.71 5.71 0 0 0 9.5 2.238l30.355-30.9 11.413 11.213-30.355 30.9a21.533 21.533 0 0 1 -15.408 6.508z"/></g></g></svg>